<mxfile host="app.diagrams.net" agent="Mozilla/5.0 (Windows NT 10.0; Win64; x64; rv:138.0) Gecko/20100101 Firefox/138.0" version="26.2.14">
  <diagram name="Page-1" id="Z6rFYa7-YnG5KdS8MZpf">
    <mxGraphModel dx="1188" dy="626" grid="1" gridSize="10" guides="1" tooltips="1" connect="1" arrows="1" fold="1" page="1" pageScale="1" pageWidth="850" pageHeight="1100" background="none" math="0" shadow="0">
      <root>
        <mxCell id="0" />
        <mxCell id="1" parent="0" />
        <mxCell id="IvxFrPHtxZzLh_V8zGwk-1" value="PERSONA" style="rounded=1;whiteSpace=wrap;html=1;fontSize=12;glass=0;strokeWidth=1;shadow=0;labelBackgroundColor=none;" parent="1" vertex="1">
          <mxGeometry x="785" y="922" width="120" height="40" as="geometry" />
        </mxCell>
        <mxCell id="IvxFrPHtxZzLh_V8zGwk-2" value="REGISTA" style="rounded=1;whiteSpace=wrap;html=1;fontSize=12;glass=0;strokeWidth=1;shadow=0;labelBackgroundColor=none;" parent="1" vertex="1">
          <mxGeometry x="937" y="762" width="120" height="40" as="geometry" />
        </mxCell>
        <mxCell id="IvxFrPHtxZzLh_V8zGwk-3" value="ATTORE" style="rounded=1;whiteSpace=wrap;html=1;fontSize=12;glass=0;strokeWidth=1;shadow=0;labelBackgroundColor=none;" parent="1" vertex="1">
          <mxGeometry x="785" y="762" width="120" height="40" as="geometry" />
        </mxCell>
        <mxCell id="IvxFrPHtxZzLh_V8zGwk-4" value="UTENTE" style="rounded=1;whiteSpace=wrap;html=1;fontSize=12;glass=0;strokeWidth=1;shadow=0;labelBackgroundColor=none;" parent="1" vertex="1">
          <mxGeometry x="615" y="762" width="120" height="40" as="geometry" />
        </mxCell>
        <mxCell id="IvxFrPHtxZzLh_V8zGwk-7" value="" style="shape=flexArrow;endArrow=classic;html=1;rounded=0;endWidth=83;endSize=8.62;entryX=0.5;entryY=0;entryDx=0;entryDy=0;labelBackgroundColor=none;fontColor=default;" parent="1" target="IvxFrPHtxZzLh_V8zGwk-1" edge="1">
          <mxGeometry width="50" height="50" relative="1" as="geometry">
            <mxPoint x="845" y="862" as="sourcePoint" />
            <mxPoint x="845" y="892" as="targetPoint" />
          </mxGeometry>
        </mxCell>
        <mxCell id="IvxFrPHtxZzLh_V8zGwk-9" value="" style="endArrow=none;html=1;rounded=0;entryX=0.5;entryY=1;entryDx=0;entryDy=0;labelBackgroundColor=none;fontColor=default;" parent="1" target="IvxFrPHtxZzLh_V8zGwk-4" edge="1">
          <mxGeometry width="50" height="50" relative="1" as="geometry">
            <mxPoint x="844" y="862" as="sourcePoint" />
            <mxPoint x="684.88" y="802" as="targetPoint" />
            <Array as="points">
              <mxPoint x="675" y="862" />
            </Array>
          </mxGeometry>
        </mxCell>
        <mxCell id="IvxFrPHtxZzLh_V8zGwk-10" value="" style="endArrow=none;html=1;rounded=0;entryX=0.5;entryY=1;entryDx=0;entryDy=0;labelBackgroundColor=none;fontColor=default;" parent="1" target="IvxFrPHtxZzLh_V8zGwk-3" edge="1">
          <mxGeometry width="50" height="50" relative="1" as="geometry">
            <mxPoint x="845" y="862" as="sourcePoint" />
            <mxPoint x="843.63" y="802" as="targetPoint" />
            <Array as="points" />
          </mxGeometry>
        </mxCell>
        <mxCell id="IvxFrPHtxZzLh_V8zGwk-11" value="" style="endArrow=none;html=1;rounded=0;entryX=0.582;entryY=1.028;entryDx=0;entryDy=0;entryPerimeter=0;labelBackgroundColor=none;fontColor=default;" parent="1" target="IvxFrPHtxZzLh_V8zGwk-2" edge="1">
          <mxGeometry width="50" height="50" relative="1" as="geometry">
            <mxPoint x="843.88" y="862" as="sourcePoint" />
            <mxPoint x="1015" y="822" as="targetPoint" />
            <Array as="points">
              <mxPoint x="1007" y="862" />
            </Array>
          </mxGeometry>
        </mxCell>
        <mxCell id="IvxFrPHtxZzLh_V8zGwk-12" value="nome" style="html=1;verticalAlign=bottom;labelBackgroundColor=none;endArrow=oval;endFill=0;endSize=8;rounded=0;exitX=0.25;exitY=1;exitDx=0;exitDy=0;fontColor=default;" parent="1" source="IvxFrPHtxZzLh_V8zGwk-1" edge="1">
          <mxGeometry x="0.3333" width="160" relative="1" as="geometry">
            <mxPoint x="814" y="1042" as="sourcePoint" />
            <mxPoint x="755" y="982" as="targetPoint" />
            <Array as="points">
              <mxPoint x="815" y="982" />
            </Array>
            <mxPoint as="offset" />
          </mxGeometry>
        </mxCell>
        <mxCell id="IvxFrPHtxZzLh_V8zGwk-15" value="id_persona" style="endArrow=none;html=1;rounded=0;align=center;verticalAlign=top;endFill=0;labelBackgroundColor=none;endSize=6;startArrow=oval;startFill=1;entryX=0.561;entryY=1.022;entryDx=0;entryDy=0;entryPerimeter=0;fontColor=default;" parent="1" target="IvxFrPHtxZzLh_V8zGwk-1" edge="1">
          <mxGeometry x="-0.6118" y="-23" relative="1" as="geometry">
            <mxPoint x="905" y="982" as="sourcePoint" />
            <mxPoint x="905" y="972" as="targetPoint" />
            <Array as="points">
              <mxPoint x="852" y="982" />
            </Array>
            <mxPoint as="offset" />
          </mxGeometry>
        </mxCell>
        <mxCell id="IvxFrPHtxZzLh_V8zGwk-16" value="username" style="html=1;verticalAlign=bottom;labelBackgroundColor=none;endArrow=oval;endFill=0;endSize=8;rounded=0;exitX=0.25;exitY=0;exitDx=0;exitDy=0;fontColor=default;" parent="1" source="IvxFrPHtxZzLh_V8zGwk-4" edge="1">
          <mxGeometry x="0.3333" width="160" relative="1" as="geometry">
            <mxPoint x="629" y="695" as="sourcePoint" />
            <mxPoint x="615" y="740" as="targetPoint" />
            <Array as="points">
              <mxPoint x="645" y="740" />
            </Array>
            <mxPoint as="offset" />
          </mxGeometry>
        </mxCell>
        <mxCell id="IvxFrPHtxZzLh_V8zGwk-17" value="email" style="html=1;verticalAlign=bottom;labelBackgroundColor=none;endArrow=oval;endFill=0;endSize=8;rounded=0;exitX=0.25;exitY=0;exitDx=0;exitDy=0;fontColor=default;" parent="1" edge="1">
          <mxGeometry x="0.3333" width="160" relative="1" as="geometry">
            <mxPoint x="710" y="762" as="sourcePoint" />
            <mxPoint x="740" y="740" as="targetPoint" />
            <Array as="points">
              <mxPoint x="710" y="740" />
            </Array>
            <mxPoint as="offset" />
          </mxGeometry>
        </mxCell>
        <mxCell id="IvxFrPHtxZzLh_V8zGwk-18" value="nazionalita&#39;" style="html=1;verticalAlign=bottom;labelBackgroundColor=none;endArrow=oval;endFill=0;endSize=8;rounded=0;exitX=0.234;exitY=-0.008;exitDx=0;exitDy=0;fontColor=default;exitPerimeter=0;" parent="1" source="IvxFrPHtxZzLh_V8zGwk-3" edge="1">
          <mxGeometry x="0.3333" width="160" relative="1" as="geometry">
            <mxPoint x="813" y="757" as="sourcePoint" />
            <mxPoint x="784" y="745" as="targetPoint" />
            <Array as="points">
              <mxPoint x="813" y="745" />
            </Array>
            <mxPoint as="offset" />
          </mxGeometry>
        </mxCell>
        <mxCell id="IvxFrPHtxZzLh_V8zGwk-19" value="nazionalita&#39;" style="html=1;verticalAlign=bottom;labelBackgroundColor=none;endArrow=oval;endFill=0;endSize=8;rounded=0;fontColor=default;exitX=0.175;exitY=0.025;exitDx=0;exitDy=0;exitPerimeter=0;" parent="1" source="IvxFrPHtxZzLh_V8zGwk-2" edge="1">
          <mxGeometry x="0.3333" width="160" relative="1" as="geometry">
            <mxPoint x="962" y="762" as="sourcePoint" />
            <mxPoint x="932" y="746" as="targetPoint" />
            <Array as="points">
              <mxPoint x="958" y="746" />
            </Array>
            <mxPoint as="offset" />
          </mxGeometry>
        </mxCell>
        <mxCell id="IvxFrPHtxZzLh_V8zGwk-20" value="genere_film" style="html=1;verticalAlign=bottom;labelBackgroundColor=none;endArrow=oval;endFill=0;endSize=8;rounded=0;fontColor=default;exitX=0.806;exitY=-0.008;exitDx=0;exitDy=0;exitPerimeter=0;" parent="1" source="IvxFrPHtxZzLh_V8zGwk-2" edge="1">
          <mxGeometry x="0.3333" width="160" relative="1" as="geometry">
            <mxPoint x="1016" y="758" as="sourcePoint" />
            <mxPoint x="1070" y="746" as="targetPoint" />
            <Array as="points">
              <mxPoint x="1033" y="746" />
            </Array>
            <mxPoint as="offset" />
          </mxGeometry>
        </mxCell>
        <mxCell id="IvxFrPHtxZzLh_V8zGwk-21" value="SERIE TV" style="rounded=1;whiteSpace=wrap;html=1;fontSize=12;glass=0;strokeWidth=1;shadow=0;labelBackgroundColor=none;" parent="1" vertex="1">
          <mxGeometry x="785" y="118" width="120" height="40" as="geometry" />
        </mxCell>
        <mxCell id="IvxFrPHtxZzLh_V8zGwk-23" value="titolo" style="html=1;verticalAlign=bottom;labelBackgroundColor=none;endArrow=oval;endFill=0;endSize=8;rounded=0;exitX=0.25;exitY=1;exitDx=0;exitDy=0;fontColor=default;" parent="1" source="IvxFrPHtxZzLh_V8zGwk-21" edge="1">
          <mxGeometry x="0.3333" width="160" relative="1" as="geometry">
            <mxPoint x="794.0400000000002" y="199.99999999999997" as="sourcePoint" />
            <mxPoint x="780" y="182" as="targetPoint" />
            <Array as="points">
              <mxPoint x="815" y="182" />
            </Array>
            <mxPoint as="offset" />
          </mxGeometry>
        </mxCell>
        <mxCell id="IvxFrPHtxZzLh_V8zGwk-24" value="anno_inizio" style="html=1;verticalAlign=bottom;labelBackgroundColor=none;endArrow=oval;endFill=0;endSize=8;rounded=0;exitX=0.833;exitY=1.008;exitDx=0;exitDy=0;fontColor=default;exitPerimeter=0;" parent="1" source="IvxFrPHtxZzLh_V8zGwk-21" edge="1">
          <mxGeometry x="0.2943" y="20" width="160" relative="1" as="geometry">
            <mxPoint x="885" y="230" as="sourcePoint" />
            <mxPoint x="860" y="190" as="targetPoint" />
            <Array as="points">
              <mxPoint x="885" y="190" />
            </Array>
            <mxPoint as="offset" />
          </mxGeometry>
        </mxCell>
        <mxCell id="IvxFrPHtxZzLh_V8zGwk-25" value="id_serieTV" style="endArrow=none;html=1;rounded=0;align=center;verticalAlign=top;endFill=0;labelBackgroundColor=none;endSize=6;startArrow=oval;startFill=1;entryX=0.952;entryY=0.968;entryDx=0;entryDy=0;entryPerimeter=0;" parent="1" target="IvxFrPHtxZzLh_V8zGwk-21" edge="1">
          <mxGeometry x="-0.6266" y="-22" relative="1" as="geometry">
            <mxPoint x="940" y="180" as="sourcePoint" />
            <mxPoint x="900" y="186" as="targetPoint" />
            <Array as="points">
              <mxPoint x="899" y="180" />
            </Array>
            <mxPoint as="offset" />
          </mxGeometry>
        </mxCell>
        <mxCell id="IvxFrPHtxZzLh_V8zGwk-26" value="Direzione" style="rhombus;whiteSpace=wrap;html=1;" parent="1" vertex="1">
          <mxGeometry x="957" y="390" width="80" height="80" as="geometry" />
        </mxCell>
        <mxCell id="IvxFrPHtxZzLh_V8zGwk-27" value="" style="endArrow=none;html=1;rounded=0;entryX=0.5;entryY=0;entryDx=0;entryDy=0;exitX=1;exitY=0.5;exitDx=0;exitDy=0;" parent="1" source="IvxFrPHtxZzLh_V8zGwk-21" target="IvxFrPHtxZzLh_V8zGwk-26" edge="1">
          <mxGeometry width="50" height="50" relative="1" as="geometry">
            <mxPoint x="820" y="460" as="sourcePoint" />
            <mxPoint x="870" y="410" as="targetPoint" />
            <Array as="points">
              <mxPoint x="997" y="138" />
            </Array>
          </mxGeometry>
        </mxCell>
        <mxCell id="IvxFrPHtxZzLh_V8zGwk-28" value="" style="endArrow=none;html=1;rounded=0;entryX=0.5;entryY=1;entryDx=0;entryDy=0;exitX=0.5;exitY=0;exitDx=0;exitDy=0;" parent="1" source="IvxFrPHtxZzLh_V8zGwk-2" target="IvxFrPHtxZzLh_V8zGwk-26" edge="1">
          <mxGeometry x="0.0909" y="-33" width="50" height="50" relative="1" as="geometry">
            <mxPoint x="990" y="750" as="sourcePoint" />
            <mxPoint x="990" y="580" as="targetPoint" />
            <mxPoint as="offset" />
          </mxGeometry>
        </mxCell>
        <mxCell id="IvxFrPHtxZzLh_V8zGwk-29" value="Contenimento" style="rhombus;whiteSpace=wrap;html=1;" parent="1" vertex="1">
          <mxGeometry x="635" y="230" width="80" height="80" as="geometry" />
        </mxCell>
        <mxCell id="IvxFrPHtxZzLh_V8zGwk-30" value="Sottoscrizione" style="rhombus;whiteSpace=wrap;html=1;" parent="1" vertex="1">
          <mxGeometry x="635" y="550" width="80" height="80" as="geometry" />
        </mxCell>
        <mxCell id="IvxFrPHtxZzLh_V8zGwk-31" value="PIATTAFORMA-&lt;div&gt;STREAMING&lt;/div&gt;" style="rounded=1;whiteSpace=wrap;html=1;" parent="1" vertex="1">
          <mxGeometry x="615" y="400" width="120" height="60" as="geometry" />
        </mxCell>
        <mxCell id="IvxFrPHtxZzLh_V8zGwk-33" value="" style="endArrow=none;html=1;rounded=0;exitX=0.5;exitY=0;exitDx=0;exitDy=0;entryX=0;entryY=0.5;entryDx=0;entryDy=0;" parent="1" source="IvxFrPHtxZzLh_V8zGwk-29" target="IvxFrPHtxZzLh_V8zGwk-21" edge="1">
          <mxGeometry width="50" height="50" relative="1" as="geometry">
            <mxPoint x="790" y="340" as="sourcePoint" />
            <mxPoint x="675" y="190" as="targetPoint" />
            <Array as="points">
              <mxPoint x="675" y="138" />
            </Array>
          </mxGeometry>
        </mxCell>
        <mxCell id="IvxFrPHtxZzLh_V8zGwk-34" value="" style="endArrow=none;html=1;rounded=0;exitX=0.5;exitY=0;exitDx=0;exitDy=0;entryX=0.5;entryY=1;entryDx=0;entryDy=0;" parent="1" source="IvxFrPHtxZzLh_V8zGwk-31" target="IvxFrPHtxZzLh_V8zGwk-29" edge="1">
          <mxGeometry width="50" height="50" relative="1" as="geometry">
            <mxPoint x="700" y="310" as="sourcePoint" />
            <mxPoint x="750" y="260" as="targetPoint" />
          </mxGeometry>
        </mxCell>
        <mxCell id="IvxFrPHtxZzLh_V8zGwk-35" value="" style="endArrow=none;html=1;rounded=0;entryX=0.5;entryY=1;entryDx=0;entryDy=0;exitX=0.5;exitY=0;exitDx=0;exitDy=0;" parent="1" source="IvxFrPHtxZzLh_V8zGwk-30" target="IvxFrPHtxZzLh_V8zGwk-31" edge="1">
          <mxGeometry width="50" height="50" relative="1" as="geometry">
            <mxPoint x="730" y="490" as="sourcePoint" />
            <mxPoint x="780" y="440" as="targetPoint" />
          </mxGeometry>
        </mxCell>
        <mxCell id="IvxFrPHtxZzLh_V8zGwk-36" value="" style="endArrow=none;html=1;rounded=0;entryX=0.5;entryY=1;entryDx=0;entryDy=0;exitX=0.5;exitY=0;exitDx=0;exitDy=0;" parent="1" source="IvxFrPHtxZzLh_V8zGwk-4" target="IvxFrPHtxZzLh_V8zGwk-30" edge="1">
          <mxGeometry width="50" height="50" relative="1" as="geometry">
            <mxPoint x="675" y="720" as="sourcePoint" />
            <mxPoint x="680" y="520" as="targetPoint" />
          </mxGeometry>
        </mxCell>
        <mxCell id="IvxFrPHtxZzLh_V8zGwk-37" value="tipo_abb" style="html=1;verticalAlign=bottom;labelBackgroundColor=none;endArrow=oval;endFill=0;endSize=8;rounded=0;exitX=0.818;exitY=0.733;exitDx=0;exitDy=0;fontColor=default;exitPerimeter=0;" parent="1" source="IvxFrPHtxZzLh_V8zGwk-30" edge="1">
          <mxGeometry x="0.2519" width="160" relative="1" as="geometry">
            <mxPoint x="715" y="610" as="sourcePoint" />
            <mxPoint x="750" y="620" as="targetPoint" />
            <Array as="points">
              <mxPoint x="715" y="620" />
            </Array>
            <mxPoint as="offset" />
          </mxGeometry>
        </mxCell>
        <mxCell id="IvxFrPHtxZzLh_V8zGwk-38" value="nome" style="html=1;verticalAlign=bottom;labelBackgroundColor=none;endArrow=oval;endFill=0;endSize=8;rounded=0;exitX=0.75;exitY=0;exitDx=0;exitDy=0;fontColor=default;" parent="1" source="IvxFrPHtxZzLh_V8zGwk-31" edge="1">
          <mxGeometry x="0.1111" width="160" relative="1" as="geometry">
            <mxPoint x="536" y="368" as="sourcePoint" />
            <mxPoint x="740" y="390" as="targetPoint" />
            <Array as="points">
              <mxPoint x="705" y="390" />
            </Array>
            <mxPoint as="offset" />
          </mxGeometry>
        </mxCell>
        <mxCell id="IvxFrPHtxZzLh_V8zGwk-39" value="id_piattaforma" style="endArrow=none;html=1;rounded=0;align=center;verticalAlign=top;endFill=0;labelBackgroundColor=none;endSize=6;startArrow=oval;startFill=1;entryX=0.25;entryY=0;entryDx=0;entryDy=0;" parent="1" target="IvxFrPHtxZzLh_V8zGwk-31" edge="1">
          <mxGeometry x="-0.5556" y="30" relative="1" as="geometry">
            <mxPoint x="610" y="390" as="sourcePoint" />
            <mxPoint x="566" y="368" as="targetPoint" />
            <Array as="points">
              <mxPoint x="645" y="390" />
            </Array>
            <mxPoint as="offset" />
          </mxGeometry>
        </mxCell>
        <mxCell id="IvxFrPHtxZzLh_V8zGwk-40" value="costo_mensile" style="html=1;verticalAlign=bottom;labelBackgroundColor=none;endArrow=oval;endFill=0;endSize=8;rounded=0;exitX=0.25;exitY=1;exitDx=0;exitDy=0;fontColor=default;" parent="1" source="IvxFrPHtxZzLh_V8zGwk-31" edge="1">
          <mxGeometry x="0.1111" y="20" width="160" relative="1" as="geometry">
            <mxPoint x="630" y="460" as="sourcePoint" />
            <mxPoint x="610" y="470" as="targetPoint" />
            <Array as="points">
              <mxPoint x="645" y="470" />
            </Array>
            <mxPoint as="offset" />
          </mxGeometry>
        </mxCell>
        <mxCell id="IvxFrPHtxZzLh_V8zGwk-41" value="data_fine" style="html=1;verticalAlign=bottom;labelBackgroundColor=none;endArrow=oval;endFill=0;endSize=8;rounded=0;exitX=1;exitY=0.5;exitDx=0;exitDy=0;fontColor=default;" parent="1" source="IvxFrPHtxZzLh_V8zGwk-30" edge="1">
          <mxGeometry x="-0.0909" width="160" relative="1" as="geometry">
            <mxPoint x="725" y="480" as="sourcePoint" />
            <mxPoint x="770" y="590" as="targetPoint" />
            <Array as="points" />
            <mxPoint as="offset" />
          </mxGeometry>
        </mxCell>
        <mxCell id="IvxFrPHtxZzLh_V8zGwk-42" value="data_inizio" style="html=1;verticalAlign=bottom;labelBackgroundColor=none;endArrow=oval;endFill=0;endSize=8;rounded=0;exitX=0;exitY=0.5;exitDx=0;exitDy=0;fontColor=default;" parent="1" source="IvxFrPHtxZzLh_V8zGwk-30" edge="1">
          <mxGeometry x="-0.0909" width="160" relative="1" as="geometry">
            <mxPoint x="540" y="589.83" as="sourcePoint" />
            <mxPoint x="580" y="590" as="targetPoint" />
            <Array as="points" />
            <mxPoint as="offset" />
          </mxGeometry>
        </mxCell>
        <mxCell id="IvxFrPHtxZzLh_V8zGwk-45" value="RecitaIn" style="rhombus;whiteSpace=wrap;html=1;" parent="1" vertex="1">
          <mxGeometry x="805" y="390" width="80" height="80" as="geometry" />
        </mxCell>
        <mxCell id="IvxFrPHtxZzLh_V8zGwk-46" value="" style="endArrow=none;html=1;rounded=0;entryX=0.5;entryY=0;entryDx=0;entryDy=0;exitX=0.5;exitY=1;exitDx=0;exitDy=0;" parent="1" source="IvxFrPHtxZzLh_V8zGwk-21" target="IvxFrPHtxZzLh_V8zGwk-45" edge="1">
          <mxGeometry width="50" height="50" relative="1" as="geometry">
            <mxPoint x="800" y="580" as="sourcePoint" />
            <mxPoint x="850" y="530" as="targetPoint" />
          </mxGeometry>
        </mxCell>
        <mxCell id="IvxFrPHtxZzLh_V8zGwk-47" value="" style="endArrow=none;html=1;rounded=0;entryX=0.5;entryY=1;entryDx=0;entryDy=0;exitX=0.5;exitY=0;exitDx=0;exitDy=0;" parent="1" source="IvxFrPHtxZzLh_V8zGwk-3" target="IvxFrPHtxZzLh_V8zGwk-45" edge="1">
          <mxGeometry width="50" height="50" relative="1" as="geometry">
            <mxPoint x="810" y="590" as="sourcePoint" />
            <mxPoint x="860" y="540" as="targetPoint" />
          </mxGeometry>
        </mxCell>
        <mxCell id="IvxFrPHtxZzLh_V8zGwk-48" value="&lt;font style=&quot;font-size: 8px;&quot;&gt;ComposizioneStag&lt;/font&gt;" style="rhombus;whiteSpace=wrap;html=1;" parent="1" vertex="1">
          <mxGeometry x="325" y="230" width="80" height="80" as="geometry" />
        </mxCell>
        <mxCell id="IvxFrPHtxZzLh_V8zGwk-49" value="&lt;font style=&quot;font-size: 8px;&quot;&gt;ComposizioneEP&lt;/font&gt;" style="rhombus;whiteSpace=wrap;html=1;" parent="1" vertex="1">
          <mxGeometry x="325" y="550" width="80" height="80" as="geometry" />
        </mxCell>
        <mxCell id="IvxFrPHtxZzLh_V8zGwk-50" value="STAGIONE" style="rounded=1;whiteSpace=wrap;html=1;" parent="1" vertex="1">
          <mxGeometry x="305" y="400" width="120" height="60" as="geometry" />
        </mxCell>
        <mxCell id="IvxFrPHtxZzLh_V8zGwk-51" value="" style="endArrow=none;html=1;rounded=0;exitX=0.5;exitY=0;exitDx=0;exitDy=0;entryX=0.5;entryY=1;entryDx=0;entryDy=0;" parent="1" source="IvxFrPHtxZzLh_V8zGwk-50" target="IvxFrPHtxZzLh_V8zGwk-48" edge="1">
          <mxGeometry width="50" height="50" relative="1" as="geometry">
            <mxPoint x="390" y="310" as="sourcePoint" />
            <mxPoint x="440" y="260" as="targetPoint" />
          </mxGeometry>
        </mxCell>
        <mxCell id="IvxFrPHtxZzLh_V8zGwk-52" value="" style="endArrow=none;html=1;rounded=0;entryX=0.5;entryY=1;entryDx=0;entryDy=0;exitX=0.5;exitY=0;exitDx=0;exitDy=0;" parent="1" source="IvxFrPHtxZzLh_V8zGwk-49" target="IvxFrPHtxZzLh_V8zGwk-50" edge="1">
          <mxGeometry width="50" height="50" relative="1" as="geometry">
            <mxPoint x="420" y="490" as="sourcePoint" />
            <mxPoint x="470" y="440" as="targetPoint" />
          </mxGeometry>
        </mxCell>
        <mxCell id="IvxFrPHtxZzLh_V8zGwk-53" value="anno" style="html=1;verticalAlign=bottom;labelBackgroundColor=none;endArrow=oval;endFill=0;endSize=8;rounded=0;exitX=0.75;exitY=1;exitDx=0;exitDy=0;fontColor=default;" parent="1" source="IvxFrPHtxZzLh_V8zGwk-50" edge="1">
          <mxGeometry x="0.1111" y="-20" width="160" relative="1" as="geometry">
            <mxPoint x="189" y="368" as="sourcePoint" />
            <mxPoint x="430" y="470" as="targetPoint" />
            <Array as="points">
              <mxPoint x="395" y="470" />
            </Array>
            <mxPoint as="offset" />
          </mxGeometry>
        </mxCell>
        <mxCell id="IvxFrPHtxZzLh_V8zGwk-54" value="numero" style="html=1;verticalAlign=bottom;labelBackgroundColor=none;endArrow=oval;endFill=0;endSize=8;rounded=0;exitX=0.75;exitY=0;exitDx=0;exitDy=0;fontColor=default;" parent="1" source="IvxFrPHtxZzLh_V8zGwk-50" edge="1">
          <mxGeometry x="0.1111" width="160" relative="1" as="geometry">
            <mxPoint x="226" y="368" as="sourcePoint" />
            <mxPoint x="430" y="390" as="targetPoint" />
            <Array as="points">
              <mxPoint x="395" y="390" />
            </Array>
            <mxPoint as="offset" />
          </mxGeometry>
        </mxCell>
        <mxCell id="IvxFrPHtxZzLh_V8zGwk-55" value="id_stagione" style="endArrow=none;html=1;rounded=0;align=center;verticalAlign=top;endFill=0;labelBackgroundColor=none;endSize=6;startArrow=oval;startFill=1;entryX=0.25;entryY=0;entryDx=0;entryDy=0;" parent="1" target="IvxFrPHtxZzLh_V8zGwk-50" edge="1">
          <mxGeometry x="-0.5556" y="30" relative="1" as="geometry">
            <mxPoint x="300" y="390" as="sourcePoint" />
            <mxPoint x="256" y="368" as="targetPoint" />
            <Array as="points">
              <mxPoint x="335" y="390" />
            </Array>
            <mxPoint as="offset" />
          </mxGeometry>
        </mxCell>
        <mxCell id="IvxFrPHtxZzLh_V8zGwk-57" value="Voto" style="html=1;verticalAlign=bottom;labelBackgroundColor=none;endArrow=oval;endFill=0;endSize=8;rounded=0;exitX=0.5;exitY=0;exitDx=0;exitDy=0;fontColor=default;" parent="1" source="IvxFrPHtxZzLh_V8zGwk-64" edge="1">
          <mxGeometry x="1" y="10" width="160" relative="1" as="geometry">
            <mxPoint x="415" y="480" as="sourcePoint" />
            <mxPoint x="520" y="700" as="targetPoint" />
            <Array as="points" />
            <mxPoint x="10" y="-10" as="offset" />
          </mxGeometry>
        </mxCell>
        <mxCell id="IvxFrPHtxZzLh_V8zGwk-58" value="Data" style="html=1;verticalAlign=bottom;labelBackgroundColor=none;endArrow=oval;endFill=0;endSize=8;rounded=0;exitX=0.5;exitY=1;exitDx=0;exitDy=0;fontColor=default;" parent="1" source="IvxFrPHtxZzLh_V8zGwk-64" edge="1">
          <mxGeometry x="1" y="20" width="160" relative="1" as="geometry">
            <mxPoint x="230" y="589.83" as="sourcePoint" />
            <mxPoint x="520" y="860" as="targetPoint" />
            <Array as="points" />
            <mxPoint x="-20" y="20" as="offset" />
          </mxGeometry>
        </mxCell>
        <mxCell id="IvxFrPHtxZzLh_V8zGwk-59" value="EPISODIO" style="rounded=1;whiteSpace=wrap;html=1;" parent="1" vertex="1">
          <mxGeometry x="305" y="752" width="120" height="60" as="geometry" />
        </mxCell>
        <mxCell id="IvxFrPHtxZzLh_V8zGwk-60" value="durata" style="html=1;verticalAlign=bottom;labelBackgroundColor=none;endArrow=oval;endFill=0;endSize=8;rounded=0;exitX=0.75;exitY=1;exitDx=0;exitDy=0;fontColor=default;" parent="1" source="IvxFrPHtxZzLh_V8zGwk-59" edge="1">
          <mxGeometry x="0.1111" y="-20" width="160" relative="1" as="geometry">
            <mxPoint x="189" y="720" as="sourcePoint" />
            <mxPoint x="430" y="822" as="targetPoint" />
            <Array as="points">
              <mxPoint x="395" y="822" />
            </Array>
            <mxPoint as="offset" />
          </mxGeometry>
        </mxCell>
        <mxCell id="IvxFrPHtxZzLh_V8zGwk-61" value="numero" style="html=1;verticalAlign=bottom;labelBackgroundColor=none;endArrow=oval;endFill=0;endSize=8;rounded=0;exitX=0.75;exitY=0;exitDx=0;exitDy=0;fontColor=default;" parent="1" source="IvxFrPHtxZzLh_V8zGwk-59" edge="1">
          <mxGeometry x="0.1111" width="160" relative="1" as="geometry">
            <mxPoint x="226" y="720" as="sourcePoint" />
            <mxPoint x="430" y="742" as="targetPoint" />
            <Array as="points">
              <mxPoint x="395" y="742" />
            </Array>
            <mxPoint as="offset" />
          </mxGeometry>
        </mxCell>
        <mxCell id="IvxFrPHtxZzLh_V8zGwk-62" value="id_episodio" style="endArrow=none;html=1;rounded=0;align=center;verticalAlign=top;endFill=0;labelBackgroundColor=none;endSize=6;startArrow=oval;startFill=1;entryX=0.25;entryY=0;entryDx=0;entryDy=0;" parent="1" target="IvxFrPHtxZzLh_V8zGwk-59" edge="1">
          <mxGeometry x="-0.5556" y="30" relative="1" as="geometry">
            <mxPoint x="300" y="742" as="sourcePoint" />
            <mxPoint x="256" y="720" as="targetPoint" />
            <Array as="points">
              <mxPoint x="335" y="742" />
            </Array>
            <mxPoint as="offset" />
          </mxGeometry>
        </mxCell>
        <mxCell id="IvxFrPHtxZzLh_V8zGwk-63" value="titolo" style="html=1;verticalAlign=bottom;labelBackgroundColor=none;endArrow=oval;endFill=0;endSize=8;rounded=0;exitX=0.25;exitY=1;exitDx=0;exitDy=0;fontColor=default;" parent="1" source="IvxFrPHtxZzLh_V8zGwk-59" edge="1">
          <mxGeometry x="0.1111" y="20" width="160" relative="1" as="geometry">
            <mxPoint x="320" y="812" as="sourcePoint" />
            <mxPoint x="300" y="822" as="targetPoint" />
            <Array as="points">
              <mxPoint x="335" y="822" />
            </Array>
            <mxPoint as="offset" />
          </mxGeometry>
        </mxCell>
        <mxCell id="IvxFrPHtxZzLh_V8zGwk-64" value="Visiona" style="rhombus;whiteSpace=wrap;html=1;" parent="1" vertex="1">
          <mxGeometry x="480" y="742" width="80" height="80" as="geometry" />
        </mxCell>
        <mxCell id="IvxFrPHtxZzLh_V8zGwk-65" value="" style="endArrow=none;html=1;rounded=0;entryX=0;entryY=0.5;entryDx=0;entryDy=0;exitX=1;exitY=0.5;exitDx=0;exitDy=0;" parent="1" source="IvxFrPHtxZzLh_V8zGwk-64" target="IvxFrPHtxZzLh_V8zGwk-4" edge="1">
          <mxGeometry width="50" height="50" relative="1" as="geometry">
            <mxPoint x="550" y="710" as="sourcePoint" />
            <mxPoint x="600" y="660" as="targetPoint" />
          </mxGeometry>
        </mxCell>
        <mxCell id="IvxFrPHtxZzLh_V8zGwk-66" value="" style="endArrow=none;html=1;rounded=0;entryX=1;entryY=0.5;entryDx=0;entryDy=0;exitX=0;exitY=0.5;exitDx=0;exitDy=0;" parent="1" source="IvxFrPHtxZzLh_V8zGwk-64" target="IvxFrPHtxZzLh_V8zGwk-59" edge="1">
          <mxGeometry width="50" height="50" relative="1" as="geometry">
            <mxPoint x="550" y="710" as="sourcePoint" />
            <mxPoint x="600" y="660" as="targetPoint" />
          </mxGeometry>
        </mxCell>
        <mxCell id="IvxFrPHtxZzLh_V8zGwk-67" value="" style="endArrow=none;html=1;rounded=0;entryX=0.5;entryY=1;entryDx=0;entryDy=0;exitX=0.5;exitY=0;exitDx=0;exitDy=0;" parent="1" source="IvxFrPHtxZzLh_V8zGwk-59" target="IvxFrPHtxZzLh_V8zGwk-49" edge="1">
          <mxGeometry width="50" height="50" relative="1" as="geometry">
            <mxPoint x="550" y="710" as="sourcePoint" />
            <mxPoint x="390" y="660" as="targetPoint" />
          </mxGeometry>
        </mxCell>
        <mxCell id="IvxFrPHtxZzLh_V8zGwk-68" value="" style="endArrow=none;html=1;rounded=0;entryX=0;entryY=0.25;entryDx=0;entryDy=0;exitX=0.5;exitY=0;exitDx=0;exitDy=0;" parent="1" source="IvxFrPHtxZzLh_V8zGwk-48" target="IvxFrPHtxZzLh_V8zGwk-21" edge="1">
          <mxGeometry width="50" height="50" relative="1" as="geometry">
            <mxPoint x="630" y="350" as="sourcePoint" />
            <mxPoint x="680" y="300" as="targetPoint" />
            <Array as="points">
              <mxPoint x="365" y="128" />
            </Array>
          </mxGeometry>
        </mxCell>
        <mxCell id="IvxFrPHtxZzLh_V8zGwk-74" value="(1,1)" style="text;strokeColor=none;align=center;fillColor=none;html=1;verticalAlign=middle;whiteSpace=wrap;rounded=0;" parent="1" vertex="1">
          <mxGeometry x="365" y="310" width="60" height="30" as="geometry" />
        </mxCell>
        <mxCell id="IvxFrPHtxZzLh_V8zGwk-75" value="(1,N)" style="text;strokeColor=none;align=center;fillColor=none;html=1;verticalAlign=middle;whiteSpace=wrap;rounded=0;" parent="1" vertex="1">
          <mxGeometry x="845" y="360" width="60" height="30" as="geometry" />
        </mxCell>
        <mxCell id="IvxFrPHtxZzLh_V8zGwk-76" value="(1,N)" style="text;strokeColor=none;align=center;fillColor=none;html=1;verticalAlign=middle;whiteSpace=wrap;rounded=0;" parent="1" vertex="1">
          <mxGeometry x="845" y="470" width="60" height="30" as="geometry" />
        </mxCell>
        <mxCell id="IvxFrPHtxZzLh_V8zGwk-77" value="(1,N)" style="text;strokeColor=none;align=center;fillColor=none;html=1;verticalAlign=middle;whiteSpace=wrap;rounded=0;" parent="1" vertex="1">
          <mxGeometry x="997" y="470" width="60" height="30" as="geometry" />
        </mxCell>
        <mxCell id="IvxFrPHtxZzLh_V8zGwk-78" value="(1,1)" style="text;strokeColor=none;align=center;fillColor=none;html=1;verticalAlign=middle;whiteSpace=wrap;rounded=0;" parent="1" vertex="1">
          <mxGeometry x="997" y="360" width="60" height="30" as="geometry" />
        </mxCell>
        <mxCell id="IvxFrPHtxZzLh_V8zGwk-79" value="(1,N)" style="text;strokeColor=none;align=center;fillColor=none;html=1;verticalAlign=middle;whiteSpace=wrap;rounded=0;" parent="1" vertex="1">
          <mxGeometry x="675" y="520" width="60" height="30" as="geometry" />
        </mxCell>
        <mxCell id="IvxFrPHtxZzLh_V8zGwk-80" value="(1,N)" style="text;strokeColor=none;align=center;fillColor=none;html=1;verticalAlign=middle;whiteSpace=wrap;rounded=0;" parent="1" vertex="1">
          <mxGeometry x="675" y="630" width="60" height="30" as="geometry" />
        </mxCell>
        <mxCell id="IvxFrPHtxZzLh_V8zGwk-81" value="(1,N)" style="text;strokeColor=none;align=center;fillColor=none;html=1;verticalAlign=middle;whiteSpace=wrap;rounded=0;" parent="1" vertex="1">
          <mxGeometry x="675" y="310" width="60" height="30" as="geometry" />
        </mxCell>
        <mxCell id="IvxFrPHtxZzLh_V8zGwk-83" value="(1,1)" style="text;strokeColor=none;align=center;fillColor=none;html=1;verticalAlign=middle;whiteSpace=wrap;rounded=0;" parent="1" vertex="1">
          <mxGeometry x="675" y="200" width="60" height="30" as="geometry" />
        </mxCell>
        <mxCell id="IvxFrPHtxZzLh_V8zGwk-84" value="(1,N)" style="text;strokeColor=none;align=center;fillColor=none;html=1;verticalAlign=middle;whiteSpace=wrap;rounded=0;" parent="1" vertex="1">
          <mxGeometry x="365" y="200" width="60" height="30" as="geometry" />
        </mxCell>
        <mxCell id="IvxFrPHtxZzLh_V8zGwk-85" value="(1,1)" style="text;strokeColor=none;align=center;fillColor=none;html=1;verticalAlign=middle;whiteSpace=wrap;rounded=0;" parent="1" vertex="1">
          <mxGeometry x="365" y="630" width="60" height="30" as="geometry" />
        </mxCell>
        <mxCell id="IvxFrPHtxZzLh_V8zGwk-87" value="(1,N)" style="text;strokeColor=none;align=center;fillColor=none;html=1;verticalAlign=middle;whiteSpace=wrap;rounded=0;" parent="1" vertex="1">
          <mxGeometry x="365" y="520" width="60" height="30" as="geometry" />
        </mxCell>
        <mxCell id="IvxFrPHtxZzLh_V8zGwk-88" value="(0,N)" style="text;strokeColor=none;align=center;fillColor=none;html=1;verticalAlign=middle;whiteSpace=wrap;rounded=0;" parent="1" vertex="1">
          <mxGeometry x="560" y="752" width="55" height="30" as="geometry" />
        </mxCell>
        <mxCell id="IvxFrPHtxZzLh_V8zGwk-89" value="(0,N)" style="text;strokeColor=none;align=center;fillColor=none;html=1;verticalAlign=middle;whiteSpace=wrap;rounded=0;" parent="1" vertex="1">
          <mxGeometry x="425" y="752" width="55" height="30" as="geometry" />
        </mxCell>
        <mxCell id="iBw6KRBomK3Jhj0xLFDZ-2" value="Ruolo" style="html=1;verticalAlign=bottom;labelBackgroundColor=none;endArrow=oval;endFill=0;endSize=8;rounded=0;exitX=1;exitY=0.5;exitDx=0;exitDy=0;fontColor=default;" parent="1" source="IvxFrPHtxZzLh_V8zGwk-45" edge="1">
          <mxGeometry x="-0.0909" width="160" relative="1" as="geometry">
            <mxPoint x="882" y="450" as="sourcePoint" />
            <mxPoint x="937" y="430" as="targetPoint" />
            <Array as="points" />
            <mxPoint as="offset" />
          </mxGeometry>
        </mxCell>
        <mxCell id="c6tHMSXrw2EYzCMTAmV8-1" value="&lt;font style=&quot;font-size: 8px;&quot;&gt;Anni attività&lt;/font&gt;" style="html=1;verticalAlign=bottom;labelBackgroundColor=none;endArrow=oval;endFill=0;endSize=8;rounded=0;exitX=0.722;exitY=1;exitDx=0;exitDy=0;fontColor=default;exitPerimeter=0;" edge="1" parent="1" source="IvxFrPHtxZzLh_V8zGwk-2">
          <mxGeometry x="0.6297" y="5" width="160" relative="1" as="geometry">
            <mxPoint x="1129" y="800" as="sourcePoint" />
            <mxPoint x="1060" y="820" as="targetPoint" />
            <Array as="points">
              <mxPoint x="1024" y="820" />
            </Array>
            <mxPoint as="offset" />
          </mxGeometry>
        </mxCell>
        <mxCell id="c6tHMSXrw2EYzCMTAmV8-2" value="Numero film" style="html=1;verticalAlign=bottom;labelBackgroundColor=none;endArrow=oval;endFill=0;endSize=8;rounded=0;exitX=0.234;exitY=-0.008;exitDx=0;exitDy=0;fontColor=default;exitPerimeter=0;" edge="1" parent="1">
          <mxGeometry x="0.3333" width="160" relative="1" as="geometry">
            <mxPoint x="889.5" y="762" as="sourcePoint" />
            <mxPoint x="860.5" y="745" as="targetPoint" />
            <Array as="points">
              <mxPoint x="889.5" y="745" />
            </Array>
            <mxPoint as="offset" />
          </mxGeometry>
        </mxCell>
        <mxCell id="c6tHMSXrw2EYzCMTAmV8-3" value="ANIME" style="rounded=1;whiteSpace=wrap;html=1;fontSize=12;glass=0;strokeWidth=1;shadow=0;labelBackgroundColor=none;" vertex="1" parent="1">
          <mxGeometry x="645" width="120" height="40" as="geometry" />
        </mxCell>
        <mxCell id="c6tHMSXrw2EYzCMTAmV8-4" value="LIVE ACTION" style="rounded=1;whiteSpace=wrap;html=1;fontSize=12;glass=0;strokeWidth=1;shadow=0;labelBackgroundColor=none;" vertex="1" parent="1">
          <mxGeometry x="905" width="120" height="40" as="geometry" />
        </mxCell>
        <mxCell id="c6tHMSXrw2EYzCMTAmV8-5" value="" style="shape=flexArrow;endArrow=classic;html=1;rounded=0;endWidth=83;endSize=8.62;entryX=0.5;entryY=0;entryDx=0;entryDy=0;labelBackgroundColor=none;fontColor=default;" edge="1" parent="1" target="IvxFrPHtxZzLh_V8zGwk-21">
          <mxGeometry width="50" height="50" relative="1" as="geometry">
            <mxPoint x="844.17" y="30" as="sourcePoint" />
            <mxPoint x="844.17" y="90" as="targetPoint" />
          </mxGeometry>
        </mxCell>
        <mxCell id="c6tHMSXrw2EYzCMTAmV8-6" value="" style="endArrow=none;html=1;rounded=0;entryX=0.972;entryY=0.017;entryDx=0;entryDy=0;labelBackgroundColor=none;fontColor=default;entryPerimeter=0;" edge="1" parent="1" target="c6tHMSXrw2EYzCMTAmV8-3">
          <mxGeometry width="50" height="50" relative="1" as="geometry">
            <mxPoint x="840" y="30" as="sourcePoint" />
            <mxPoint x="765" y="-120" as="targetPoint" />
            <Array as="points">
              <mxPoint x="840" />
              <mxPoint x="800" />
            </Array>
          </mxGeometry>
        </mxCell>
        <mxCell id="c6tHMSXrw2EYzCMTAmV8-8" value="" style="endArrow=none;html=1;rounded=0;entryX=0.025;entryY=0.008;entryDx=0;entryDy=0;labelBackgroundColor=none;fontColor=default;entryPerimeter=0;" edge="1" parent="1" target="c6tHMSXrw2EYzCMTAmV8-4">
          <mxGeometry width="50" height="50" relative="1" as="geometry">
            <mxPoint x="850" y="30" as="sourcePoint" />
            <mxPoint x="790" y="-29" as="targetPoint" />
            <Array as="points">
              <mxPoint x="850" />
            </Array>
          </mxGeometry>
        </mxCell>
      </root>
    </mxGraphModel>
  </diagram>
</mxfile>
